<?xml version="1.0" encoding="UTF-8"?>
<svg id="_图层_2" data-name="图层 2" xmlns="http://www.w3.org/2000/svg" viewBox="0 0 174 91">
  <defs>
    <style>
      .cls-1 {
        fill: #f99;
      }

      .cls-2 {
        fill: #663;
      }

      .cls-3 {
        font-family: SimHei, SimHei;
        font-size: 12px;
      }

      .cls-4 {
        fill: #6cf;
      }

      .cls-5 {
        fill: #6f9;
      }

      .cls-6 {
        fill: #fc9;
      }
    </style>
  </defs>
  <g id="_图层_1-2" data-name="图层 1">
    <path class="cls-6" d="m91,45.5c0,.3,0,.6-.01.89-.47,24.72-20.66,44.61-45.49,44.61-11.83,0-22.62-4.52-30.71-11.94-3.3-3.01-6.15-6.5-8.44-10.37C2.31,61.9,0,53.97,0,45.5,0,20.37,20.37,0,45.5,0c22.45,0,41.1,16.26,44.82,37.65.45,2.55.68,5.17.68,7.85Z"/>
    <polygon class="cls-5" points="29.36 41.66 13.73 41.85 21.38 28.22 29.36 41.66"/>
    <rect class="cls-2" x="20" y="54" width="4" height="16"/>
    <polygon class="cls-5" points="29.47 56.16 13.95 56.41 21.59 42.78 29.47 56.16"/>
    <polygon class="cls-5" points="29.47 48.93 13.84 49.13 21.49 35.5 29.47 48.93"/>
    <path class="cls-4" d="m91,45.5c0,.3,0,.6-.01.89-6.13,2.32-6.92,1.97-8.99,3.61-4.91,3.9-2.87,7.81-7,11-3.25,2.51-8.17,2.34-18,2-5.59-.19-7.95-.79-10,1-2.79,2.43-1.1,5.85-4,8-.61.45-1.53.93-10,1-5.53.05-4.93-.15-6,0-5.61.81-6.48,4.15-12,6-.07.02-.14.05-.21.06-3.3-3.01-6.15-6.5-8.44-10.37,3.81-3.06,9.12-2.73,9.65-2.69,1.6.12,2.89.5,4,.92,1.56.59,2.77,1.25,4,1.39.64.07,1.29-.01,2-.31,2.25-.96,1.69-2.77,4-4,4.04-2.15,8.28,2.05,11,0,1.83-1.38.36-3.64,2-6,2.13-3.07,6.5-1.95,16-3,8.09-.89,12.8-1.48,16-5,2.85-3.14,1.09-4.85,4-8,3-3.24,7.45-4.2,11.32-4.35.45,2.55.68,5.17.68,7.85Z"/>
    <circle class="cls-1" cx="65" cy="25" r="8"/>
    <text class="cls-3" transform="translate(100.1 43.39)"><tspan x="0" y="0">再等等，马上</tspan><tspan x="0" y="14.4">就好……</tspan></text>
  </g>
</svg>